<svg xmlns="http://www.w3.org/2000/svg" width="170.92" height="33.281" viewBox="0 0 170.92 33.281">
  <g id="g1124" transform="translate(-144.197 573.364)">
    <g id="g937" transform="translate(144.197 -573.364)">
      <g id="g959" transform="translate(24.187 1.836)">
        <path id="path961" d="M-59.135-29.782l2.251-6.134A12.183,12.183,0,0,0-71.313-28.3a12.179,12.179,0,0,0,2.635,12.618l0,0,2.321,5.6,1.13-3.079L-62.98-19.3a5.724,5.724,0,0,1-2.271-6.78,5.724,5.724,0,0,1,6.116-3.7" transform="translate(72.059 36.292)" fill="#fff"/>
      </g>
      <g id="g963" transform="translate(33.374 0)">
        <path id="path965" d="M-53.97-25.617l0,0-2.321-5.6-1.13,3.077L-59.669-22a5.724,5.724,0,0,1,2.27,6.78,5.724,5.724,0,0,1-6.116,3.7l-2.251,6.134A12.183,12.183,0,0,0-51.337-13,12.179,12.179,0,0,0-53.97-25.617" transform="translate(65.766 31.216)" fill="#fff"/>
      </g>
      <g id="g967" transform="translate(146.275 1.87)">
        <path id="path969" d="M-56.143-81.243a5.253,5.253,0,0,1-5.474-5.612,5.252,5.252,0,0,1,5.474-5.612,5.252,5.252,0,0,1,5.474,5.612,5.252,5.252,0,0,1-5.474,5.612m5.474-17.113v2.162A8.642,8.642,0,0,0-57.524-99a10.762,10.762,0,0,0-6.741,2.514l-4.148,11.324c.74,6.012,5.371,10.45,10.89,10.45a8.64,8.64,0,0,0,6.854-2.806v2.162h6.9v-23Z" transform="translate(68.414 99)" fill="#fff"/>
      </g>
      <g id="g971" transform="translate(51.067 1.869)">
        <path id="path973" d="M-151.97-109.757l1.787-4.786v-9.542c0-5.833-3.5-9.661-8.867-9.661-3.314,0-5.46,1.213-6.767,3.08a6.944,6.944,0,0,0-6.114-3.08c-3.127,0-5.18,1.213-6.254,2.8v-2.509H-183.1l-2.083,5.69v18.008h5.341l1.659-4.444v-8.717c0-2.753,1.307-4.387,3.641-4.387,2.24,0,3.36,1.494,3.36,3.827v13.721h5.431l1.568-4.2v-8.96c0-2.753,1.307-4.387,3.64-4.387,2.24,0,3.36,1.494,3.36,3.827v13.721Z" transform="translate(185.185 133.746)" fill="#fff"/>
      </g>
      <g id="g975" transform="translate(113.523 2.18)">
        <path id="path977" d="M-32.03-92.756v-20.273H-37.3l-1.725,4.612v19.075H-33.3Z" transform="translate(39.03 113.029)" fill="#fff"/>
      </g>
      <g id="g979" transform="translate(86.529 2.161)">
        <path id="path981" d="M-81,0l-5.466,17.359-.248-4.422L-90.962,0h-7.747l8.752,23.7h7.934L-73.258,0Z" transform="translate(98.709)" fill="#fff"/>
      </g>
      <g id="g983" transform="translate(0 1.869)">
        <path id="path985" d="M-55.34-79.982a5.062,5.062,0,0,1-5.2-5.336,5.061,5.061,0,0,1,5.2-5.335,4.763,4.763,0,0,1,4.462,2.576l6.026-3.5a11.851,11.851,0,0,0-10.4-5.889,12.448,12.448,0,0,0-9.045,3.84l-3.142,8.585A11.908,11.908,0,0,0-55.248-73.173a11.743,11.743,0,0,0,10.4-5.934l-6.026-3.45a4.716,4.716,0,0,1-4.462,2.576" transform="translate(67.435 97.463)" fill="#fff"/>
      </g>
      <g id="g987" transform="translate(122.931 2.161)">
        <path id="path989" d="M-81.071,0l-5.464,17.359-.248-4.422L-91.043,0H-98.79l8.768,23.7h7.934L-73.324,0Z" transform="translate(98.79)" fill="#fff"/>
      </g>
      <g id="g991" transform="translate(95.281 29.168)">
        <path id="path993" d="M-6.045-11.27h1.061l-.39-.869c-.023-.056-.046-.119-.07-.191s-.048-.152-.073-.241q-.031.126-.066.233c-.024.072-.047.138-.072.2Zm1.712,1.5-.432-.981H-6.274l-.442.981h-.65l1.844-3.959L-3.68-9.774Z" transform="translate(7.366 13.733)" fill="#fff"/>
      </g>
      <g id="g995" transform="translate(100.532 29.319)">
        <path id="path997" d="M-7.461-2.4V.878H-8.08V-2.4H-9.092V-2.93h2.637V-2.4Z" transform="translate(9.092 2.93)" fill="#fff"/>
      </g>
      <g id="g999" transform="translate(103.643 29.319)">
        <path id="path1001" d="M0-17.422V-21.23H2.125v.526H.618v.955H2.125v.544H.618v1.23H2.125v.554Z" transform="translate(0 21.23)" fill="#fff"/>
      </g>
      <g id="g1003" transform="translate(106.311 29.23)">
        <path id="path1005" d="M-14.745-4.644a1.906,1.906,0,0,0-.556-.336,1.709,1.709,0,0,0-.615-.112,1.358,1.358,0,0,0-1.015.4,1.422,1.422,0,0,0-.391,1.038,1.417,1.417,0,0,0,.381,1.017,1.27,1.27,0,0,0,.961.4,1.753,1.753,0,0,0,.644-.12,2.04,2.04,0,0,0,.587-.362v.7a1.835,1.835,0,0,1-.543.268,2.207,2.207,0,0,1-.637.088,2.226,2.226,0,0,1-.807-.143,1.875,1.875,0,0,1-.651-.421,1.872,1.872,0,0,1-.428-.643,2.092,2.092,0,0,1-.15-.789,2.072,2.072,0,0,1,.15-.787,1.9,1.9,0,0,1,.433-.646,1.909,1.909,0,0,1,.65-.425,2.142,2.142,0,0,1,.793-.143,2.082,2.082,0,0,1,.64.1,2.24,2.24,0,0,1,.59.3Z" transform="translate(17.968 5.659)" fill="#fff"/>
      </g>
      <g id="g1007" transform="translate(110.301 29.319)">
        <path id="path1009" d="M0-17.422V-21.23H.619v1.4H2.492v-1.4h.619v3.808H2.492v-1.849H.619v1.849Z" transform="translate(0 21.23)" fill="#fff"/>
      </g>
      <g id="g1011" transform="translate(115.527 29.158)">
        <path id="path1013" d="M-15.888-9.556Q-15.9-9.6-15.921-9.8q-.021-.167-.036-.276a1.892,1.892,0,0,1-.067.26,2.234,2.234,0,0,1-.108.265l-1,2.029-1-2.07q-.063-.128-.108-.247c-.03-.08-.057-.159-.079-.236a2.486,2.486,0,0,1-.02.251,2.781,2.781,0,0,1-.051.274l-.409,1.875h-.57l.9-3.969,1.124,2.4c.018.038.044.1.079.19s.078.2.129.328a4.271,4.271,0,0,1,.172-.417c.021-.045.036-.08.047-.1l1.1-2.4.921,3.969h-.575Z" transform="translate(19.36 11.645)" fill="#fff"/>
      </g>
      <g id="g1015" transform="translate(120.292 29.168)">
        <path id="path1017" d="M-6.046-11.27h1.061l-.39-.869c-.023-.056-.046-.119-.07-.191s-.048-.152-.072-.241q-.031.126-.066.233c-.023.072-.047.138-.072.2Zm1.711,1.5-.432-.981H-6.275l-.442.981h-.65l1.844-3.959,1.841,3.959Z" transform="translate(7.367 13.733)" fill="#fff"/>
      </g>
      <g id="g1019" transform="translate(124.336 29.319)">
        <path id="path1021" d="M0-17.422V-21.23H.619v1.4H2.492v-1.4h.619v3.808H2.492v-1.849H.619v1.849Z" transform="translate(0 21.23)" fill="#fff"/>
      </g>
      <path id="path1023" d="M858.506-409.9h.619v3.808h-.619Z" transform="translate(-730.388 439.219)" fill="#fff"/>
      <g id="g1025" transform="translate(129.414 29.168)">
        <path id="path1027" d="M0-18.112v-3.959l2.419,2.328q.1.1.2.211t.213.252v-2.64H3.4v3.956L.936-20.334c-.066-.064-.129-.131-.191-.2s-.12-.146-.175-.224v2.648Z" transform="translate(0 22.071)" fill="#fff"/>
      </g>
      <g id="g1029" transform="translate(133.479 29.316)">
        <path id="path1031" d="M-2.832-14.878h.52a2.679,2.679,0,0,0,.644-.057.94.94,0,0,0,.373-.192,1.145,1.145,0,0,0,.324-.459,1.735,1.735,0,0,0,.108-.639,1.735,1.735,0,0,0-.108-.639,1.146,1.146,0,0,0-.324-.459.965.965,0,0,0-.386-.192,3.128,3.128,0,0,0-.7-.058h-.448Zm-.619.559v-3.808h.834a5.458,5.458,0,0,1,1.146.082,1.545,1.545,0,0,1,.581.274,1.591,1.591,0,0,1,.5.648,2.26,2.26,0,0,1,.17.9,2.233,2.233,0,0,1-.17.9,1.617,1.617,0,0,1-.5.646,1.554,1.554,0,0,1-.568.274,4.357,4.357,0,0,1-.992.082h-1Z" transform="translate(3.451 18.13)" fill="#fff"/>
      </g>
      <g id="g1033" transform="translate(137.209 29.318)">
        <path id="path1035" d="M-2.832-7.43h.112a1.247,1.247,0,0,0,.653-.114.464.464,0,0,0,.161-.406.519.519,0,0,0-.173-.444,1.138,1.138,0,0,0-.641-.129h-.112Zm-.039.481v1.7h-.58V-9.053h.863A2.71,2.71,0,0,1-2-9a.927.927,0,0,1,.358.164.908.908,0,0,1,.273.356,1.177,1.177,0,0,1,.1.479,1.067,1.067,0,0,1-.221.717.972.972,0,0,1-.652.31L-.834-5.245h-.7L-2.8-6.949Z" transform="translate(3.451 9.054)" fill="#fff"/>
      </g>
      <g id="g1037" transform="translate(139.995 29.168)">
        <path id="path1039" d="M-6.045-11.27h1.061l-.39-.869c-.023-.056-.046-.119-.07-.191s-.048-.152-.073-.241q-.031.126-.066.233c-.023.072-.047.138-.072.2Zm1.712,1.5-.432-.981H-6.274l-.442.981h-.65l1.844-3.959,1.841,3.959Z" transform="translate(7.366 13.733)" fill="#fff"/>
      </g>
      <g id="g1041" transform="translate(145.48 29.23)">
        <path id="path1043" d="M-14.745-4.644a1.906,1.906,0,0,0-.556-.336,1.707,1.707,0,0,0-.615-.112,1.357,1.357,0,0,0-1.015.4,1.422,1.422,0,0,0-.391,1.038,1.415,1.415,0,0,0,.381,1.017,1.27,1.27,0,0,0,.961.4,1.751,1.751,0,0,0,.644-.12,2.039,2.039,0,0,0,.587-.362v.7a1.835,1.835,0,0,1-.544.268,2.207,2.207,0,0,1-.637.088,2.224,2.224,0,0,1-.807-.143,1.873,1.873,0,0,1-.651-.421,1.87,1.87,0,0,1-.428-.643,2.1,2.1,0,0,1-.15-.789,2.075,2.075,0,0,1,.15-.787,1.9,1.9,0,0,1,.433-.646,1.909,1.909,0,0,1,.65-.425,2.142,2.142,0,0,1,.793-.143,2.081,2.081,0,0,1,.64.1,2.246,2.246,0,0,1,.59.3Z" transform="translate(17.968 5.659)" fill="#fff"/>
      </g>
      <g id="g1045" transform="translate(149.09 29.234)">
        <path id="path1047" d="M-15.674-9.137a1.447,1.447,0,0,0-.105-.549,1.417,1.417,0,0,0-.3-.463,1.338,1.338,0,0,0-.446-.308,1.353,1.353,0,0,0-.535-.108,1.371,1.371,0,0,0-.534.106,1.364,1.364,0,0,0-.451.31,1.371,1.371,0,0,0-.3.46,1.466,1.466,0,0,0-.1.551,1.441,1.441,0,0,0,.1.546,1.408,1.408,0,0,0,.3.46,1.361,1.361,0,0,0,.45.309,1.359,1.359,0,0,0,.536.108,1.338,1.338,0,0,0,.529-.108,1.393,1.393,0,0,0,.451-.309,1.422,1.422,0,0,0,.3-.462,1.43,1.43,0,0,0,.105-.545m.646,0a1.961,1.961,0,0,1-.152.767,1.953,1.953,0,0,1-.443.646,2.086,2.086,0,0,1-.664.434,2.035,2.035,0,0,1-.775.151,2.057,2.057,0,0,1-.784-.152,2.023,2.023,0,0,1-.659-.433,1.941,1.941,0,0,1-.442-.642,1.967,1.967,0,0,1-.152-.771,1.979,1.979,0,0,1,.151-.77,1.963,1.963,0,0,1,.442-.647,2.021,2.021,0,0,1,.661-.432,2.083,2.083,0,0,1,.783-.148,2.067,2.067,0,0,1,.779.148,2.029,2.029,0,0,1,.66.432,2,2,0,0,1,.444.651,1.964,1.964,0,0,1,.153.766" transform="translate(19.1 11.134)" fill="#fff"/>
      </g>
      <g id="g1049" transform="translate(153.292 29.158)">
        <path id="path1051" d="M-15.888-9.556q-.01-.044-.034-.244-.021-.167-.036-.276a1.892,1.892,0,0,1-.067.26,2.235,2.235,0,0,1-.108.265l-1,2.029-1-2.07q-.062-.128-.108-.247c-.03-.08-.057-.159-.08-.236a2.385,2.385,0,0,1-.019.251,2.781,2.781,0,0,1-.051.274l-.409,1.875h-.57l.9-3.969,1.124,2.4c.018.038.044.1.079.19s.078.2.129.328a4.263,4.263,0,0,1,.172-.417c.021-.045.036-.08.047-.1l1.1-2.4.92,3.969h-.575Z" transform="translate(19.36 11.645)" fill="#fff"/>
      </g>
      <g id="g1053" transform="translate(158.254 29.318)">
        <path id="path1055" d="M-2.832-7.288h.159A1.4,1.4,0,0,0-1.987-7.4a.436.436,0,0,0,.172-.395A.481.481,0,0,0-2-8.224a1.285,1.285,0,0,0-.675-.126h-.159Zm-.039.507v1.709h-.58V-8.88h.936a3,3,0,0,1,.613.045.958.958,0,0,1,.342.15.891.891,0,0,1,.281.357,1.192,1.192,0,0,1,.1.5,1.22,1.22,0,0,1-.1.5.866.866,0,0,1-.281.359.938.938,0,0,1-.342.148,3.055,3.055,0,0,1-.613.044Z" transform="translate(3.451 8.881)" fill="#fff"/>
      </g>
      <g id="g1057" transform="translate(160.066 29.168)">
        <path id="path1059" d="M-6.046-11.27h1.061l-.39-.869c-.023-.056-.046-.119-.07-.191s-.048-.152-.073-.241q-.031.126-.066.233c-.024.072-.047.138-.072.2Zm1.711,1.5-.432-.981H-6.275l-.442.981h-.65l1.844-3.959,1.841,3.959Z" transform="translate(7.367 13.733)" fill="#fff"/>
      </g>
      <g id="g1061" transform="translate(164.004 29.168)">
        <path id="path1063" d="M0-18.112v-3.959l2.419,2.328q.1.1.2.211t.213.252v-2.64H3.4v3.956L.936-20.334q-.1-.1-.191-.2c-.062-.071-.12-.146-.175-.224v2.648Z" transform="translate(0 22.071)" fill="#fff"/>
      </g>
      <g id="g1065" transform="translate(167.713 29.319)">
        <path id="path1067" d="M-5.868-17.422v-1.742L-7.15-21.23h.65l.8,1.293c.019.033.043.076.072.13s.058.112.087.174c.025-.061.05-.118.077-.172a1.473,1.473,0,0,1,.085-.148l.819-1.277h.619l-1.311,2.065v1.742Z" transform="translate(7.15 21.23)" fill="#fff"/>
      </g>
    </g>
  </g>
</svg>
